<?xml version="1.0" encoding="UTF-8" standalone="no"?>
<!-- Generator: Gravit.io -->
<svg xmlns="http://www.w3.org/2000/svg" xmlns:xlink="http://www.w3.org/1999/xlink" style="isolation:isolate" viewBox="600.078 414.289 325.383 48.779" width="325.383" height="48.779"><linearGradient id="_lgradient_0" x1="0" y1="0.5" x2="1" y2="0.5" gradientTransform="matrix(325.383,0,0,48.779,600.078,414.289)" gradientUnits="userSpaceOnUse"><stop offset="0.43478260869565216%" stop-opacity="1" style="stop-color:rgb(117,21,191)"/><stop offset="97.3913043478261%" stop-opacity="1" style="stop-color:rgb(20,56,174)"/></linearGradient><path d=" M 647.002 455.695 L 647.002 463.068 L 600.078 442.463 L 600.078 437.678 L 647.002 414.289 L 647.002 421.564 L 608.818 439.68 L 647.002 455.695 Z  M 878.537 455.695 L 878.537 463.068 L 925.461 442.463 L 925.461 437.678 L 878.537 414.289 L 878.537 421.564 L 916.721 439.68 L 878.537 455.695 Z  M 669.851 460.695 L 669.851 460.695 L 669.851 460.695 Q 666.54 460.695 664.357 459.919 L 664.357 459.919 L 664.357 459.919 Q 662.175 459.143 660.915 457.443 L 660.915 457.443 L 660.915 457.443 Q 659.655 455.744 659.157 453.4 L 659.157 453.4 L 659.157 453.4 Q 658.659 451.057 658.659 447.57 L 658.659 447.57 L 658.659 416.193 L 666.335 415.695 L 666.335 447.424 L 666.335 447.424 Q 666.335 451.76 667.36 453.298 L 667.36 453.298 L 667.36 453.298 Q 668.386 454.836 671.345 454.836 L 671.345 454.836 L 671.345 454.836 Q 672.81 454.836 675.065 454.514 L 675.065 454.514 L 675.271 459.992 L 675.271 459.992 Q 675.241 459.992 674.553 460.139 L 674.553 460.139 L 674.553 460.139 Q 673.864 460.285 673.234 460.388 L 673.234 460.388 L 673.234 460.388 Q 672.604 460.49 671.638 460.593 L 671.638 460.593 L 671.638 460.593 Q 670.671 460.695 669.851 460.695 Z  M 693.112 455.041 L 693.112 455.041 L 693.112 455.041 Q 697.009 455.041 698.972 452.199 L 698.972 452.199 L 698.972 452.199 Q 700.935 449.357 700.935 444.055 L 700.935 444.055 L 700.935 444.055 Q 700.935 438.693 698.972 435.881 L 698.972 435.881 L 698.972 435.881 Q 697.009 433.068 693.054 433.068 L 693.054 433.068 L 693.054 433.068 Q 689.157 433.068 687.18 435.896 L 687.18 435.896 L 687.18 435.896 Q 685.202 438.723 685.202 444.084 L 685.202 444.084 L 685.202 444.084 Q 685.202 449.357 687.194 452.199 L 687.194 452.199 L 687.194 452.199 Q 689.187 455.041 693.112 455.041 Z  M 692.907 460.871 L 692.907 460.871 L 692.907 460.871 Q 685.759 460.871 681.657 456.242 L 681.657 456.242 L 681.657 456.242 Q 677.556 451.613 677.556 444.055 L 677.556 444.055 L 677.556 444.055 Q 677.556 436.262 681.657 431.765 L 681.657 431.765 L 681.657 431.765 Q 685.759 427.268 693.229 427.268 L 693.229 427.268 L 693.229 427.268 Q 700.437 427.268 704.523 431.853 L 704.523 431.853 L 704.523 431.853 Q 708.61 436.438 708.61 444.055 L 708.61 444.055 L 708.61 444.055 Q 708.61 451.76 704.479 456.315 L 704.479 456.315 L 704.479 456.315 Q 700.349 460.871 692.907 460.871 Z  M 728.972 460.871 L 728.972 460.871 L 728.972 460.871 Q 721.589 460.871 717.473 456.477 L 717.473 456.477 L 717.473 456.477 Q 713.356 452.082 713.356 443.908 L 713.356 443.908 L 713.356 443.908 Q 713.356 435.998 717.678 431.633 L 717.678 431.633 L 717.678 431.633 Q 721.999 427.268 729.06 427.268 L 729.06 427.268 L 729.06 427.268 Q 734.714 427.268 738.61 429.699 L 738.61 429.699 L 736.794 435.178 L 736.794 435.178 Q 732.81 433.098 729.382 433.098 L 729.382 433.098 L 729.382 433.098 Q 725.485 433.098 723.244 435.881 L 723.244 435.881 L 723.244 435.881 Q 721.003 438.664 721.003 443.996 L 721.003 443.996 L 721.003 443.996 Q 721.003 449.387 723.215 452.199 L 723.215 452.199 L 723.215 452.199 Q 725.427 455.012 729.47 455.012 L 729.47 455.012 L 729.47 455.012 Q 733.688 455.012 737.585 452.521 L 737.585 452.521 L 738.317 458.352 L 738.317 458.352 Q 736.296 459.699 734.128 460.285 L 734.128 460.285 L 734.128 460.285 Q 731.96 460.871 728.972 460.871 Z  M 752.087 460.256 L 744.411 460.256 L 744.411 428.059 L 750.593 428.059 L 751.442 432.131 L 751.442 432.131 Q 756.364 427.268 762.37 427.268 L 762.37 427.268 L 762.37 427.268 Q 767.995 427.268 770.793 430.505 L 770.793 430.505 L 770.793 430.505 Q 773.591 433.742 773.591 439.895 L 773.591 439.895 L 773.591 460.256 L 765.886 460.256 L 765.886 440.832 L 765.886 440.832 Q 765.856 436.936 764.626 435.002 L 764.626 435.002 L 764.626 435.002 Q 763.396 433.068 760.202 433.068 L 760.202 433.068 L 760.202 433.068 Q 757.712 433.068 755.646 434.343 L 755.646 434.343 L 755.646 434.343 Q 753.581 435.617 752.644 437.551 L 752.644 437.551 L 752.644 437.551 Q 752.087 439.836 752.087 444.582 L 752.087 444.582 L 752.087 460.256 Z  M 796.032 460.871 L 796.032 460.871 L 796.032 460.871 Q 788.269 460.871 783.947 456.403 L 783.947 456.403 L 783.947 456.403 Q 779.626 451.936 779.626 444.055 L 779.626 444.055 L 779.626 444.055 Q 779.626 436.379 783.698 431.838 L 783.698 431.838 L 783.698 431.838 Q 787.771 427.297 794.802 427.268 L 794.802 427.268 L 794.802 427.268 Q 801.452 427.268 805.129 431.428 L 805.129 431.428 L 805.129 431.428 Q 808.806 435.588 808.806 442.473 L 808.806 442.473 L 808.806 442.473 Q 808.806 442.971 808.791 444.084 L 808.791 444.084 L 808.791 444.084 Q 808.776 445.197 808.776 445.725 L 808.776 445.725 L 787.36 445.725 L 787.36 445.725 Q 787.478 450.236 789.836 452.712 L 789.836 452.712 L 789.836 452.712 Q 792.194 455.188 796.325 455.188 L 796.325 455.188 L 796.325 455.188 Q 801.599 455.188 806.462 452.434 L 806.462 452.434 L 807.546 457.883 L 807.546 457.883 Q 802.712 460.871 796.032 460.871 Z  M 787.507 440.891 L 787.507 440.891 L 801.569 440.891 L 801.569 440.891 Q 801.569 436.965 799.782 434.855 L 799.782 434.855 L 799.782 434.855 Q 797.995 432.746 794.831 432.746 L 794.831 432.746 L 794.831 432.746 Q 791.872 432.746 789.836 434.797 L 789.836 434.797 L 789.836 434.797 Q 787.8 436.848 787.507 440.891 Z  M 825.329 460.842 L 825.329 460.842 L 825.329 460.842 Q 818.21 460.842 813.933 458.41 L 813.933 458.41 L 814.724 452.639 L 814.724 452.639 Q 816.657 453.693 819.646 454.528 L 819.646 454.528 L 819.646 454.528 Q 822.634 455.363 825.095 455.363 L 825.095 455.363 L 825.095 455.363 Q 827.644 455.363 829.064 454.411 L 829.064 454.411 L 829.064 454.411 Q 830.485 453.459 830.515 451.613 L 830.515 451.613 L 830.515 451.613 Q 830.515 449.943 829.182 448.977 L 829.182 448.977 L 829.182 448.977 Q 827.849 448.01 824.099 446.574 L 824.099 446.574 L 824.099 446.574 Q 822.81 446.105 822.429 445.959 L 822.429 445.959 L 822.429 445.959 Q 817.976 444.23 816.013 442.106 L 816.013 442.106 L 816.013 442.106 Q 814.05 439.982 814.05 436.35 L 814.05 436.35 L 814.05 436.35 Q 814.05 431.955 817.229 429.611 L 817.229 429.611 L 817.229 429.611 Q 820.407 427.268 826.091 427.268 L 826.091 427.268 L 826.091 427.268 Q 832.243 427.268 836.901 429.582 L 836.901 429.582 L 834.997 434.885 L 834.997 434.885 Q 830.397 432.746 826.237 432.746 L 826.237 432.746 L 826.237 432.746 Q 823.923 432.746 822.619 433.522 L 822.619 433.522 L 822.619 433.522 Q 821.315 434.299 821.315 435.881 L 821.315 435.881 L 821.315 435.881 Q 821.315 437.375 822.575 438.21 L 822.575 438.21 L 822.575 438.21 Q 823.835 439.045 827.497 440.393 L 827.497 440.393 L 827.497 440.393 Q 827.614 440.422 828.259 440.656 L 828.259 440.656 L 828.259 440.656 Q 828.903 440.891 829.255 441.037 L 829.255 441.037 L 829.255 441.037 Q 833.679 442.648 835.759 444.89 L 835.759 444.89 L 835.759 444.89 Q 837.839 447.131 837.839 450.734 L 837.839 450.734 L 837.839 450.734 Q 837.81 455.568 834.558 458.205 L 834.558 458.205 L 834.558 458.205 Q 831.306 460.842 825.329 460.842 Z  M 854.187 460.842 L 854.187 460.842 L 854.187 460.842 Q 847.067 460.842 842.79 458.41 L 842.79 458.41 L 843.581 452.639 L 843.581 452.639 Q 845.515 453.693 848.503 454.528 L 848.503 454.528 L 848.503 454.528 Q 851.491 455.363 853.952 455.363 L 853.952 455.363 L 853.952 455.363 Q 856.501 455.363 857.922 454.411 L 857.922 454.411 L 857.922 454.411 Q 859.343 453.459 859.372 451.613 L 859.372 451.613 L 859.372 451.613 Q 859.372 449.943 858.039 448.977 L 858.039 448.977 L 858.039 448.977 Q 856.706 448.01 852.956 446.574 L 852.956 446.574 L 852.956 446.574 Q 851.667 446.105 851.286 445.959 L 851.286 445.959 L 851.286 445.959 Q 846.833 444.23 844.87 442.106 L 844.87 442.106 L 844.87 442.106 Q 842.907 439.982 842.907 436.35 L 842.907 436.35 L 842.907 436.35 Q 842.907 431.955 846.086 429.611 L 846.086 429.611 L 846.086 429.611 Q 849.265 427.268 854.948 427.268 L 854.948 427.268 L 854.948 427.268 Q 861.101 427.268 865.759 429.582 L 865.759 429.582 L 863.854 434.885 L 863.854 434.885 Q 859.255 432.746 855.095 432.746 L 855.095 432.746 L 855.095 432.746 Q 852.78 432.746 851.477 433.522 L 851.477 433.522 L 851.477 433.522 Q 850.173 434.299 850.173 435.881 L 850.173 435.881 L 850.173 435.881 Q 850.173 437.375 851.433 438.21 L 851.433 438.21 L 851.433 438.21 Q 852.692 439.045 856.354 440.393 L 856.354 440.393 L 856.354 440.393 Q 856.472 440.422 857.116 440.656 L 857.116 440.656 L 857.116 440.656 Q 857.761 440.891 858.112 441.037 L 858.112 441.037 L 858.112 441.037 Q 862.536 442.648 864.616 444.89 L 864.616 444.89 L 864.616 444.89 Q 866.696 447.131 866.696 450.734 L 866.696 450.734 L 866.696 450.734 Q 866.667 455.568 863.415 458.205 L 863.415 458.205 L 863.415 458.205 Q 860.163 460.842 854.187 460.842 Z " fill-rule="evenodd" fill="url(#_lgradient_0)"/></svg>
